<?xml version="1.0" encoding="UTF-8" standalone="no"?>
<!-- Created with Inkscape (http://www.inkscape.org/) -->

<svg
   xmlns:dc="http://purl.org/dc/elements/1.1/"
   xmlns:cc="http://creativecommons.org/ns#"
   xmlns:rdf="http://www.w3.org/1999/02/22-rdf-syntax-ns#"
   xmlns:svg="http://www.w3.org/2000/svg"
   xmlns="http://www.w3.org/2000/svg"
   xmlns:sodipodi="http://sodipodi.sourceforge.net/DTD/sodipodi-0.dtd"
   xmlns:inkscape="http://www.inkscape.org/namespaces/inkscape"
   version="1.1"
   id="svg10"
   width="834"
   height="480"
   viewBox="0 0 834 480"
   sodipodi:docname="logo-footer.svg"
   inkscape:version="0.92.4 (5da689c313, 2019-01-14)">
  <metadata
     id="metadata16">
    <rdf:RDF>
      <cc:Work
         rdf:about="">
        <dc:format>image/svg+xml</dc:format>
        <dc:type
           rdf:resource="http://purl.org/dc/dcmitype/StillImage" />
        <dc:title />
      </cc:Work>
    </rdf:RDF>
  </metadata>
  <defs
     id="defs14" />
  <sodipodi:namedview
     pagecolor="#ffffff"
     bordercolor="#666666"
     borderopacity="1"
     objecttolerance="10"
     gridtolerance="10"
     guidetolerance="10"
     inkscape:pageopacity="0"
     inkscape:pageshadow="2"
     inkscape:window-width="1920"
     inkscape:window-height="1017"
     id="namedview12"
     showgrid="false"
     inkscape:zoom="0.62608413"
     inkscape:cx="280.38408"
     inkscape:cy="226.88524"
     inkscape:window-x="-8"
     inkscape:window-y="-8"
     inkscape:window-maximized="1"
     inkscape:current-layer="layer2"
     showguides="false" />
  <g
     inkscape:groupmode="layer"
     id="layer2"
     inkscape:label="poziomica"
     style="display:inline">
    <path
       style="opacity:0.5;fill:none;fill-opacity:1;stroke:#9cbadc;stroke-width:3.89447546;stroke-linecap:butt;stroke-linejoin:miter;stroke-miterlimit:4;stroke-dasharray:none;stroke-opacity:1"
       d="m 78.68235,441.06223 c 0,0 -40.094115,-2.67652 -19.199997,-86.7192 20.894117,-84.04268 12.115487,-119.9108 21.458827,-158.9852 9.6,-40.14779 27.60905,-75.11111 45.74117,-97.960588 21.29814,-26.839182 62.98267,-56.138787 102.77647,-8.564859 39.17789,46.837587 50.82353,73.336607 50.82353,73.336607 0,0 46.30589,87.78982 -14.11764,122.58456 -37.6905,21.70397 -64.77891,43.14323 -89.86847,68.71528 -27.05208,25.41052 -68.34723,94.56076 -97.61389,87.5934 z"
       id="path23"
       inkscape:connector-curvature="0"
       sodipodi:nodetypes="csssscscc" />
    <path
       style="display:inline;opacity:0.5;fill:none;stroke:#9cbadc;stroke-width:3.89447546;stroke-linecap:butt;stroke-linejoin:miter;stroke-miterlimit:4;stroke-dasharray:none;stroke-opacity:1"
       d="m 92.16076,400.87988 c 0,0 -26.094857,-1.60302 -9.25902,-68.74664 16.83585,-67.14362 15.38074,-91.60142 18.7982,-123.48794 3.64766,-34.03444 22.65803,-70.75583 39.57069,-87.68026 18.51765,-18.53055 49.0002,-39.231898 80.8518,-2.02492 47.16541,48.48111 74.97684,110.87353 20.54119,155.45528 -11.13509,8.59401 -25.22304,16.08073 -36.37014,25.33323 -47.45389,39.38841 -89.95828,106.49462 -114.13272,101.15125 z"
       id="path23-7"
       inkscape:connector-curvature="0"
       sodipodi:nodetypes="csssccsc" />
    <path
       style="display:inline;opacity:0.5;fill:none;stroke:#9cbadc;stroke-width:3.89447546;stroke-linecap:butt;stroke-linejoin:miter;stroke-miterlimit:4;stroke-dasharray:none;stroke-opacity:1"
       d="m 117.59894,335.03848 c 0,0 -12.75235,-5.08989 -2.94975,-42.72924 9.80261,-37.63932 7.18091,-46.59023 9.8805,-64.5222 2.95033,-17.19012 6.97657,-48.70142 20.78442,-68.64803 6.58192,-9.50814 17.69672,-22.81215 31.53921,-24.79628 12.66166,-0.74993 25.65672,11.80895 33.23747,20.55848 13.7918,15.91817 24.05104,42.29886 26.78346,59.90588 1.07575,45.09696 -23.17922,44.53995 -50.80128,72.70766 -22.58475,23.12703 -52.92098,63.61786 -68.47403,47.52373 z"
       id="path23-7-6"
       inkscape:connector-curvature="0"
       sodipodi:nodetypes="cscscsccc" />
    <path
       style="display:inline;opacity:0.5;fill:none;stroke:#9cbadc;stroke-width:3.89447546;stroke-linecap:butt;stroke-linejoin:miter;stroke-miterlimit:4;stroke-dasharray:none;stroke-opacity:1"
       d="m 164.4259,218.56174 c 3.43697,-18.45705 19.23136,-26.70979 28.60006,-16.60925 9.10758,10.48496 12.58486,16.5108 12.58486,16.5108 0,0 5.11046,13.25841 -0.6886,22.36104 -1.28134,2.01128 -3.09529,3.81967 -5.61468,5.23732 -13.9216,7.83359 -17.41602,12.63315 -27.72603,20.75333 -6.34739,5.60017 -18.48846,18.00821 -21.17598,17.85272 -11.07633,-0.64082 12.04152,-52.09534 14.02037,-66.10596 z"
       id="path23-7-6-7"
       inkscape:connector-curvature="0"
       sodipodi:nodetypes="cccsscsc" />
    <path
       style="font-style:normal;font-variant:normal;font-weight:normal;font-stretch:normal;font-size:70.72762299px;line-height:1.34999919;font-family:'Tw Cen MT';-inkscape-font-specification:'Tw Cen MT';letter-spacing:0.53707159px;word-spacing:0px;fill:#9cbadc;fill-opacity:0.25882353;stroke:none;stroke-width:0.9422307"
       d="M 348.28125 235.66406 L 348.28125 280.48633 L 354.41602 280.48633 L 354.41602 249.87109 L 387.62891 282.48047 L 387.62891 237.38867 L 381.49414 237.38867 L 381.49414 268.44336 L 348.28125 235.66406 z M 605.77734 236.00195 C 602.0871 236.00195 598.95075 237.09568 596.36523 239.2832 C 593.77972 241.44817 592.48633 244.07642 592.48633 247.16602 C 592.48633 248.45148 592.70966 249.65757 593.15625 250.78516 C 593.62634 251.91274 594.3546 253.05103 595.3418 254.20117 C 596.329 255.32877 597.49226 256.31012 598.83203 257.14453 C 600.1953 257.95639 602.13539 258.85928 604.65039 259.85156 C 607.1889 260.82129 609.03382 261.68832 610.18555 262.45508 C 611.33728 263.22184 612.30052 264.2032 613.07617 265.39844 C 613.85183 266.57113 614.24023 267.74332 614.24023 268.91602 C 614.24023 270.87802 613.50032 272.50166 612.01953 273.78711 C 610.53874 275.07256 608.68021 275.7168 606.44727 275.7168 C 601.84034 275.7168 598.42045 273.29199 596.1875 268.44336 L 590.05273 270.09961 C 591.60405 274.04617 593.81406 277.01349 596.68164 278.99805 C 599.57272 280.96005 602.89941 281.93945 606.66016 281.93945 C 610.51494 281.93945 613.79305 280.67814 616.49609 278.15234 C 619.22264 275.62654 620.58594 272.57011 620.58594 268.98438 C 620.58594 267.45085 620.32765 265.99675 619.81055 264.62109 C 619.31695 263.24544 618.55374 261.93762 617.51953 260.69727 C 616.48532 259.45692 615.15699 258.32929 613.53516 257.31445 C 611.93684 256.27708 609.69187 255.17074 606.80078 253.99805 C 603.9097 252.80279 601.86475 251.70906 600.66602 250.7168 C 599.46728 249.70196 598.86719 248.54043 598.86719 247.23242 C 598.86719 245.72146 599.54884 244.4921 600.91211 243.54492 C 602.29889 242.5752 604.09719 242.0918 606.30664 242.0918 C 608.32804 242.0918 609.86806 242.41827 610.92578 243.07227 C 612.00699 243.70371 613.20522 244.67246 614.52148 245.98047 L 619.49414 242.1582 C 617.82531 240.08344 615.7318 238.54022 613.2168 237.52539 C 610.7018 236.51056 608.22184 236.00195 605.77734 236.00195 z M 498.76562 236.57812 L 498.76562 280.48633 L 504.90039 280.48633 L 504.90039 236.57812 L 498.76562 236.57812 z M 517.85938 238.91211 C 516.56662 238.91211 515.44995 239.36161 514.50977 240.26367 C 513.56957 241.14319 513.09961 242.19236 513.09961 243.41016 C 513.09961 244.6505 513.56957 245.71032 514.50977 246.58984 C 515.44995 247.46936 516.56662 247.91016 517.85938 247.91016 C 519.12864 247.91016 520.22199 247.46936 521.13867 246.58984 C 522.07886 245.71032 522.54883 244.6505 522.54883 243.41016 C 522.54883 242.19236 522.07886 241.14319 521.13867 240.26367 C 520.22199 239.36161 519.12864 238.91211 517.85938 238.91211 z M 439.24805 244.45898 L 439.24805 252.50977 L 434.41797 252.50977 L 434.41797 257.95703 L 439.24805 257.95703 L 439.24805 280.48633 L 445.38281 280.48633 L 445.38281 257.95703 L 451.44727 257.95703 L 451.44727 252.57812 L 445.38281 252.57812 L 445.38281 244.45898 L 439.24805 244.45898 z M 630.08984 244.45898 L 630.08984 252.50977 L 625.25977 252.50977 L 625.25977 257.95703 L 630.08984 257.95703 L 630.08984 280.48633 L 636.22461 280.48633 L 636.22461 257.95703 L 642.28906 257.95703 L 642.28906 252.57812 L 636.22461 252.57812 L 636.22461 244.45898 L 630.08984 244.45898 z M 410.07031 251.79883 C 406.38007 251.79883 403.1602 253.26553 400.41016 256.19727 C 397.6836 259.10645 396.32031 262.51261 396.32031 266.41406 C 396.32031 270.54104 397.67196 274.04697 400.375 276.93359 C 403.10155 279.82023 406.38162 281.26367 410.21289 281.26367 C 414.63178 281.26367 418.33326 279.15469 421.31836 274.9375 L 421.31836 280.48633 L 427.45312 280.48633 L 427.45312 252.57812 L 421.31836 252.57812 L 421.31836 258.26172 C 420.19013 256.34482 418.6035 254.78704 416.55859 253.5918 C 414.51367 252.39655 412.35027 251.79883 410.07031 251.79883 z M 470.68164 251.79883 C 466.9914 251.79883 463.77153 253.26553 461.02148 256.19727 C 458.29493 259.10645 456.93164 262.51261 456.93164 266.41406 C 456.93164 270.54104 458.28328 274.04697 460.98633 276.93359 C 463.71287 279.82023 466.991 281.26367 470.82227 281.26367 C 475.24115 281.26367 478.94263 279.15469 481.92773 274.9375 L 481.92773 280.48633 L 488.0625 280.48633 L 488.0625 252.57812 L 481.92773 252.57812 L 481.92773 258.26172 C 480.79951 256.34482 479.21484 254.78704 477.16992 253.5918 C 475.12502 252.39655 472.9616 251.79883 470.68164 251.79883 z M 543.82812 251.79883 C 540.13788 251.79883 536.91802 253.26553 534.16797 256.19727 C 531.44142 259.10645 530.07812 262.51261 530.07812 266.41406 C 530.07812 270.54104 531.42977 274.04697 534.13281 276.93359 C 536.85936 279.82023 540.13748 281.26367 543.96875 281.26367 C 548.38763 281.26367 552.08911 279.15469 555.07422 274.9375 L 555.07422 280.48633 L 561.20898 280.48633 L 561.20898 252.57812 L 555.07422 252.57812 L 555.07422 258.26172 C 553.94599 256.34482 552.35937 254.78704 550.31445 253.5918 C 548.26955 252.39655 546.10808 251.79883 543.82812 251.79883 z M 664.16797 251.79883 C 662.07605 251.79883 660.37095 252.31808 659.05469 253.35547 C 657.76192 254.3703 656.43358 256.02785 655.07031 258.32812 L 655.07031 252.57812 L 649.07812 252.57812 L 649.07812 280.48633 L 655.21289 280.48633 L 655.21289 265.02539 C 655.21289 262.95063 655.9062 261.22722 657.29297 259.85156 C 658.70326 258.45336 660.44136 257.75391 662.50977 257.75391 C 662.88584 257.75391 663.66265 257.86628 664.83789 258.0918 L 666.70703 252.20508 C 665.6023 251.93446 664.75558 251.79883 664.16797 251.79883 z M 685.55273 251.79883 C 681.86249 251.79883 678.64263 253.26553 675.89258 256.19727 C 673.16603 259.10645 671.80273 262.51261 671.80273 266.41406 C 671.80273 270.54104 673.15438 274.04697 675.85742 276.93359 C 678.58398 279.82023 681.86209 281.26367 685.69336 281.26367 C 690.11224 281.26367 693.81567 279.15469 696.80078 274.9375 L 696.80078 280.48633 L 702.93359 280.48633 L 702.93359 252.57812 L 696.80078 252.57812 L 696.80078 258.26172 C 695.67255 256.34482 694.08593 254.78704 692.04102 253.5918 C 689.9961 252.39655 687.83269 251.79883 685.55273 251.79883 z M 726.92969 251.79883 C 725.23735 251.79883 723.73228 252.20571 722.41602 253.01758 C 721.12326 253.82944 719.75997 255.11401 718.32617 256.87305 L 718.32617 252.57812 L 712.26172 252.57812 L 712.26172 280.48633 L 718.32617 280.48633 L 718.32617 264.75586 C 718.32617 262.56834 718.97287 260.73061 720.26562 259.24219 C 721.55839 257.75377 723.13337 257.00977 724.99023 257.00977 C 728.11636 257.00977 729.67969 258.83489 729.67969 262.48828 L 729.67969 280.48633 L 735.81445 280.48633 L 735.81445 265.29688 C 735.81445 262.97404 736.43589 261.02394 737.68164 259.44531 C 738.95089 257.86669 740.49092 257.07617 742.30078 257.07617 C 745.47393 257.07617 747.06055 258.62134 747.06055 261.71094 L 747.06055 280.48633 L 753.16016 280.48633 L 753.16016 260.18945 C 753.16016 257.91173 752.32509 255.94902 750.65625 254.30273 C 748.98742 252.6339 747.00268 251.79883 744.69922 251.79883 C 742.81884 251.79883 741.16035 252.26287 739.72656 253.1875 C 738.31628 254.11212 736.84812 255.58752 735.32031 257.61719 C 734.45064 255.58752 733.38058 254.11212 732.11133 253.1875 C 730.86557 252.26287 729.13913 251.79883 726.92969 251.79883 z M 774.86328 251.79883 C 771.17304 251.79883 767.95318 253.26553 765.20312 256.19727 C 762.47658 259.10645 761.11328 262.51261 761.11328 266.41406 C 761.11328 270.54104 762.46298 274.04697 765.16602 276.93359 C 767.89257 279.82023 771.17264 281.26367 775.00391 281.26367 C 779.42279 281.26367 783.12428 279.15469 786.10938 274.9375 L 786.10938 280.48633 L 792.24414 280.48633 L 792.24414 252.57812 L 786.10938 252.57812 L 786.10938 258.26172 C 784.98115 256.34482 783.39452 254.78704 781.34961 253.5918 C 779.30469 252.39655 777.14323 251.79883 774.86328 251.79883 z M 514.82812 252.57812 L 514.82812 280.48633 L 520.89062 280.48633 L 520.89062 252.57812 L 514.82812 252.57812 z M 412.43359 257.34766 C 415.08963 257.34766 417.36956 258.2612 419.27344 260.08789 C 421.17732 261.89204 422.12891 264.06689 422.12891 266.61523 C 422.12891 269.14103 421.17732 271.33044 419.27344 273.17969 C 417.36956 275.00638 415.08963 275.91797 412.43359 275.91797 C 409.75406 275.91797 407.47413 274.99378 405.59375 273.14453 C 403.71338 271.29528 402.77344 269.05262 402.77344 266.41406 C 402.77344 263.97848 403.73668 261.85687 405.66406 260.05273 C 407.59145 258.24859 409.84808 257.34766 412.43359 257.34766 z M 473.04297 257.34766 C 475.699 257.34766 477.97893 258.2612 479.88281 260.08789 C 481.78669 261.89204 482.74023 264.06689 482.74023 266.61523 C 482.74023 269.14103 481.78669 271.33044 479.88281 273.17969 C 477.97893 275.00638 475.699 275.91797 473.04297 275.91797 C 470.36344 275.91797 468.0835 274.99378 466.20312 273.14453 C 464.32274 271.29528 463.38281 269.05262 463.38281 266.41406 C 463.38281 263.97848 464.348 261.85687 466.27539 260.05273 C 468.20278 258.24859 470.45746 257.34766 473.04297 257.34766 z M 546.18945 257.34766 C 548.84549 257.34766 551.12541 258.2612 553.0293 260.08789 C 554.93318 261.89204 555.88672 264.06689 555.88672 266.61523 C 555.88672 269.14103 554.93318 271.33044 553.0293 273.17969 C 551.12541 275.00638 548.84549 275.91797 546.18945 275.91797 C 543.50992 275.91797 541.22999 274.99378 539.34961 273.14453 C 537.46923 271.29528 536.5293 269.05262 536.5293 266.41406 C 536.5293 263.97848 537.49253 261.85687 539.41992 260.05273 C 541.34731 258.24859 543.60394 257.34766 546.18945 257.34766 z M 687.91406 257.34766 C 690.5701 257.34766 692.85197 258.2612 694.75586 260.08789 C 696.65974 261.89204 697.61133 264.06689 697.61133 266.61523 C 697.61133 269.14103 696.65974 271.33044 694.75586 273.17969 C 692.85197 275.00638 690.5701 275.91797 687.91406 275.91797 C 685.23453 275.91797 682.9546 274.99378 681.07422 273.14453 C 679.19384 271.29528 678.25391 269.05262 678.25391 266.41406 C 678.25391 263.97848 679.21909 261.85687 681.14648 260.05273 C 683.07387 258.24859 685.32855 257.34766 687.91406 257.34766 z M 777.22461 257.34766 C 779.88065 257.34766 782.16057 258.2612 784.06445 260.08789 C 785.96833 261.89204 786.91992 264.06689 786.91992 266.61523 C 786.91992 269.14103 785.96833 271.33044 784.06445 273.17969 C 782.16057 275.00638 779.88065 275.91797 777.22461 275.91797 C 774.54508 275.91797 772.26515 274.99378 770.38477 273.14453 C 768.50439 271.29528 767.56445 269.05262 767.56445 266.41406 C 767.56445 263.97848 768.52769 261.85687 770.45508 260.05273 C 772.38246 258.24859 774.6391 257.34766 777.22461 257.34766 z "
       id="path2059" />
    <path
       style="font-style:normal;font-variant:normal;font-weight:bold;font-stretch:normal;font-size:131.98400879px;line-height:1.25;font-family:'Franklin Gothic Heavy';-inkscape-font-specification:'Franklin Gothic Heavy, Bold';letter-spacing:0px;word-spacing:0px;fill:#9cbadc;fill-opacity:1;stroke:none;stroke-width:1.56622791"
       d="M 276.74414 207.86719 C 245.4898 207.86719 220.296 216.79948 201.16406 234.66406 C 180.79514 253.66153 170.61133 280.06495 170.61133 313.87695 C 170.61133 349.17041 182.23893 375.75064 205.49414 393.61523 C 225.20334 408.60406 250.80881 416.09766 282.31055 416.09766 C 303.50411 416.09766 319.62543 414.39863 330.67578 411 C 331.41797 394.18114 332.20074 379.6272 333.02539 367.33984 C 334.6747 346.77378 335.91168 332.78813 336.73633 325.38086 L 284.28906 325.38086 C 286.02083 337.75535 287.13412 346.64393 287.62891 352.04688 L 289.60742 378.32031 C 278.80447 378.66889 269.27973 375.70603 261.0332 369.43164 C 251.21984 362.02437 246.31445 351.5242 246.31445 337.92969 C 246.31445 323.55087 252.08573 311.69944 263.63086 302.375 C 273.93902 294.09629 285.48546 289.95703 298.26758 289.95703 C 308.32834 289.95703 316.07878 291.046 321.52148 293.22461 L 314.71875 210.74219 C 301.19444 208.82501 288.53667 207.86719 276.74414 207.86719 z M 698.16602 308.08594 L 698.16602 329.45312 L 722.45898 329.45312 L 722.45898 308.08594 L 698.16602 308.08594 z M 529.1543 310.87695 L 529.1543 340.20312 C 525.16654 334.98642 520.10141 332.37891 513.95703 332.37891 C 506.59191 332.37891 500.67136 335.64551 496.19531 342.17773 C 491.71927 348.70996 489.48047 357.53262 489.48047 368.64648 C 489.48047 380.5315 491.69941 389.60323 496.13477 395.86328 C 500.61081 402.07797 506.42818 405.18555 513.58984 405.18555 C 521.36188 405.18555 526.93708 401.64689 530.31445 394.57031 L 530.31445 403.75586 L 553.14258 403.75586 L 553.14258 310.87695 L 529.1543 310.87695 z M 375.58594 333.12695 C 365.33173 333.12695 357.13266 336.6886 350.98828 343.81055 C 344.84389 350.93249 341.77148 359.66317 341.77148 370.00586 C 341.77148 379.98565 344.88556 388.35619 351.11133 395.11523 C 357.3371 401.82891 365.67711 405.18555 376.13477 405.18555 C 385.53445 405.18555 392.98128 402.8041 398.47461 398.04102 C 404.00862 393.23258 407.4482 387.4255 408.79102 380.62109 L 386.08398 378.91992 C 385.14808 384.59026 382.03596 387.42578 376.74609 387.42578 C 373.08387 387.42578 370.60095 386.38356 369.29883 384.29688 C 367.99671 382.16483 367.30599 378.92123 367.22461 374.56641 L 408.79102 374.56641 C 408.83168 372.88799 408.85156 371.57176 408.85156 370.61914 C 408.85156 359.05166 405.77915 349.91095 399.63477 343.19727 C 393.53107 336.48359 385.51462 333.12695 375.58594 333.12695 z M 449.19727 333.12695 C 439.06513 333.12695 430.8244 336.57362 424.47656 343.46875 C 418.16942 350.36388 415.01562 358.98348 415.01562 369.32617 C 415.01563 378.94307 418.04833 387.33465 424.11133 394.50195 C 430.17433 401.62389 438.35158 405.18555 448.64648 405.18555 C 459.06345 405.18555 467.40542 401.73888 473.67188 394.84375 C 479.97902 387.90326 483.13281 379.26066 483.13281 368.91797 C 483.13281 358.666 480.02068 350.13839 473.79492 343.33398 C 467.60984 336.52958 459.41078 333.12695 449.19727 333.12695 z M 596.53906 333.12695 C 586.28486 333.12695 578.08579 336.6886 571.94141 343.81055 C 565.79702 350.93249 562.72461 359.66317 562.72461 370.00586 C 562.72461 379.98565 565.83868 388.35619 572.06445 395.11523 C 578.29022 401.82891 586.63218 405.18555 597.08984 405.18555 C 606.48953 405.18555 613.93636 402.8041 619.42969 398.04102 C 624.9637 393.23258 628.40133 387.4255 629.74414 380.62109 L 607.03906 378.91992 C 606.10316 384.59026 602.98909 387.42578 597.69922 387.42578 C 594.037 387.42578 591.55603 386.38356 590.25391 384.29688 C 588.95179 382.16483 588.25911 378.92123 588.17773 374.56641 L 629.74414 374.56641 C 629.78481 372.88799 629.80469 371.57176 629.80469 370.61914 C 629.80469 359.05166 626.73227 349.91095 620.58789 343.19727 C 614.4842 336.48359 606.46774 333.12695 596.53906 333.12695 z M 765.97852 333.12695 C 747.54537 333.12695 736.74229 340.36133 733.56836 354.83203 L 755.78516 357.14648 C 756.43622 352.11122 759.57015 349.59375 765.18555 349.59375 C 767.58634 349.59375 769.39645 350.09186 770.61719 351.08984 C 771.87861 352.08782 772.50977 354.10718 772.50977 357.14648 L 772.50977 358.71094 C 757.33191 359.61819 746.75115 362.34068 740.76953 366.87695 C 734.8286 371.36786 731.85938 377.26497 731.85938 384.56836 C 731.85938 389.96652 733.66949 394.75241 737.29102 398.92578 C 740.95323 403.09915 746.44705 405.18555 753.77148 405.18555 C 762.68288 405.18555 769.33581 401.48786 773.73047 394.09375 C 773.73047 397.58667 774.01431 400.80728 774.58398 403.75586 L 797.7793 403.75586 C 796.51787 400.03611 795.88672 395.54527 795.88672 390.2832 L 795.88672 362.6582 C 795.88672 355.17336 795.45999 350.11541 794.60547 347.48438 C 793.79164 344.85335 792.16414 342.35887 789.72266 340 C 787.28118 337.64114 783.96464 335.91683 779.77344 334.82812 C 775.58223 333.69406 770.98355 333.12695 765.97852 333.12695 z M 637.06836 334.55664 L 637.06836 351.43164 L 654.76953 351.43164 C 655.8682 351.43164 657.98396 351.36265 661.11719 351.22656 L 634.93164 388.71875 L 634.93164 403.75586 L 689.68164 403.75586 L 689.68164 386.54102 L 666.97656 386.54102 C 666.44758 386.54102 665.85809 386.56404 665.20703 386.60938 L 661.9707 386.67773 L 688.70508 349.11719 L 688.70508 334.55664 L 637.06836 334.55664 z M 698.16602 334.55664 L 698.16602 399.67383 C 698.16602 405.2988 696.0304 408.11133 691.75781 408.11133 C 689.96739 408.11133 688.17714 407.68025 686.38672 406.81836 L 686.38672 426.61914 C 690.37447 427.48103 694.50476 427.91211 698.77734 427.91211 C 705.32864 427.91211 710.39378 426.66487 713.97461 424.16992 C 717.55544 421.67497 719.85576 418.61339 720.87305 414.98438 C 721.93102 411.35536 722.45898 406.25142 722.45898 399.67383 L 722.45898 334.55664 L 698.16602 334.55664 z M 375.83008 349.11719 C 378.27154 349.11719 380.30593 349.93335 381.93359 351.56641 C 383.60196 353.1541 384.45738 356.28467 384.49805 360.95703 L 367.16406 360.95703 C 367.16406 353.06392 370.05191 349.11719 375.83008 349.11719 z M 596.7832 349.11719 C 599.22468 349.11719 601.26102 349.93335 602.88867 351.56641 C 604.55704 353.1541 605.41051 356.28467 605.45117 360.95703 L 588.11719 360.95703 C 588.11719 353.06392 591.00504 349.11719 596.7832 349.11719 z M 522.25781 349.93359 C 526.85593 349.93359 529.1543 353.04117 529.1543 359.25586 L 529.1543 376.40234 C 529.1543 380.03136 528.46358 382.73085 527.08008 384.5 C 525.73726 386.26914 524.0899 387.1543 522.13672 387.1543 C 517.00961 387.1543 514.44531 381.55224 514.44531 370.34766 C 514.44531 364.63196 514.93356 359.80007 515.91016 355.85352 C 516.92744 351.90696 519.04319 349.93359 522.25781 349.93359 z M 449.07422 350.13867 C 452.12607 350.13867 454.24183 351.56597 455.42188 354.42383 C 456.60192 357.28167 457.19336 361.95454 457.19336 368.44141 C 457.19336 373.20449 456.76468 377.78731 455.91016 382.1875 C 455.09634 386.54231 452.79797 388.71875 449.01367 388.71875 C 446.32805 388.71875 444.31352 387.44852 442.9707 384.9082 C 441.62789 382.32253 440.95703 377.06152 440.95703 369.12305 C 440.95703 362.36401 441.60803 357.50911 442.91016 354.56055 C 444.21228 351.61197 446.26652 350.13867 449.07422 350.13867 z M 772.50977 371.36719 L 772.50977 374.70117 C 772.50977 380.59832 771.59479 384.40903 769.76367 386.13281 C 767.93257 387.8566 765.71362 388.71875 763.10938 388.71875 C 758.99955 388.71875 756.94531 386.63235 756.94531 382.45898 C 756.94531 376.28966 762.13349 372.59198 772.50977 371.36719 z "
       id="path2036" />
  </g>
</svg>
